<?xml version="1.0" encoding="UTF-8" standalone="no"?>
<svg
   xmlns:dc="http://purl.org/dc/elements/1.1/"
   xmlns:cc="http://creativecommons.org/ns#"
   xmlns:rdf="http://www.w3.org/1999/02/22-rdf-syntax-ns#"
   xmlns:svg="http://www.w3.org/2000/svg"
   xmlns="http://www.w3.org/2000/svg"
   xmlns:sodipodi="http://sodipodi.sourceforge.net/DTD/sodipodi-0.dtd"
   xmlns:inkscape="http://www.inkscape.org/namespaces/inkscape"
   width="39.51297mm"
   height="45.119762mm"
   viewBox="0 0 39.51297 45.119762"
   version="1.1"
   id="svg3239"
   inkscape:version="1.0.1 (c497b03c, 2020-09-10)"
   sodipodi:docname="menu-logo-mask.svg">
  <defs
     id="defs3233" />
  <sodipodi:namedview
     id="base"
     pagecolor="#ffffff"
     bordercolor="#666666"
     borderopacity="1.0"
     inkscape:pageopacity="0.0"
     inkscape:pageshadow="2"
     inkscape:zoom="2.3995372"
     inkscape:cx="91.843459"
     inkscape:cy="110.95409"
     inkscape:document-units="mm"
     inkscape:current-layer="g2941"
     inkscape:document-rotation="0"
     showgrid="false"
     fit-margin-top="0"
     fit-margin-left="0"
     fit-margin-right="0"
     fit-margin-bottom="0"
     inkscape:window-width="1795"
     inkscape:window-height="1027"
     inkscape:window-x="1484"
     inkscape:window-y="25"
     inkscape:window-maximized="0" />
  <metadata
     id="metadata3236">
    <rdf:RDF>
      <cc:Work
         rdf:about="">
        <dc:format>image/svg+xml</dc:format>
        <dc:type
           rdf:resource="http://purl.org/dc/dcmitype/StillImage" />
        <dc:title></dc:title>
      </cc:Work>
    </rdf:RDF>
  </metadata>
  <g
     inkscape:label="Layer 1"
     inkscape:groupmode="layer"
     id="layer1"
     transform="translate(-89.856609,-71.934167)">
    <g
       id="g2941"
       transform="translate(-17.38709,-39.133989)">
      <path
         id="path1262-8-9-9-5-7-9-8-1"
         style="fill:#000000;fill-opacity:1;stroke:none;stroke-width:1;stroke-linecap:butt;stroke-linejoin:miter;stroke-miterlimit:4;stroke-dasharray:none;stroke-opacity:1"
         d="M 74.654297 0.5 C 72.599462 0.5 70.543718 0.89393045 69.173828 1.6816406 L 63.695312 4.8320312 L 8.8984375 36.341797 C 3.2525416 39.208191 0.66289764 42.647485 0.5 47.273438 L 0.5 54.128906 L 0.5 122.69336 C 0.5 126.1215 3.2866406 131.15308 6.0722656 132.75586 L 67.683594 168.06836 C 73.192444 170.69933 77.509088 170.70047 81.457031 168.10352 L 143.23633 133.08398 C 146.02195 131.49307 148.80664 126.46419 148.80664 123.02539 L 148.80664 47.890625 C 149.1753 40.927412 146.58554 40.067617 140.4082 36.341797 L 139.31641 35.714844 L 80.132812 1.6816406 C 78.762887 0.89393045 76.709132 0.5 74.654297 0.5 z M 74.669922 4.6894531 C 76.629871 4.6894531 78.589864 5.0673806 79.896484 5.8222656 L 137.38867 39.039062 C 140.00191 40.54887 140.00191 43.568279 137.38867 45.078125 L 79.896484 78.292969 C 77.283243 79.802777 72.0566 79.802777 69.443359 78.292969 L 11.951172 45.078125 C 9.3378929 43.568279 9.3378929 40.54887 11.951172 39.039062 L 64.216797 8.8417969 L 69.443359 5.8222656 C 70.74998 5.0674184 72.709972 4.6894531 74.669922 4.6894531 z M 55.845703 23.025391 L 41.726562 31.181641 L 60.550781 42.058594 L 41.726562 52.933594 L 55.845703 61.091797 L 74.669922 50.214844 L 93.494141 61.091797 L 107.61328 52.933594 L 88.787109 42.058594 L 107.61328 31.181641 L 93.494141 23.025391 L 74.669922 33.900391 L 65.257812 28.462891 L 55.845703 23.025391 z M 7.3027344 45.451172 C 7.9254871 45.451852 8.5896543 45.629672 9.2539062 46.013672 L 67.708984 79.804688 C 70.365992 81.34065 73.021484 86.162025 73.021484 89.447266 L 73.021484 161.72266 C 73.021484 165.00828 70.365992 166.75663 67.708984 165.2207 L 9.2539062 131.42969 C 6.5968984 129.89373 3.9394531 125.07427 3.9394531 121.78906 L 3.9394531 56.083984 L 3.9394531 49.511719 C 3.9394531 47.047618 5.4345139 45.449169 7.3027344 45.451172 z M 142.03711 45.511719 C 143.90533 45.521054 145.39844 47.135913 145.39844 49.607422 L 145.39844 122.10547 C 145.39844 125.40076 142.74099 130.22155 140.08398 131.74609 L 81.630859 165.28516 C 78.973814 166.8097 76.316406 165.03944 76.316406 161.74414 L 76.316406 95.835938 L 76.316406 89.246094 C 76.316406 85.950761 78.973814 81.130055 81.630859 79.605469 L 140.08398 46.066406 C 140.74824 45.685203 141.41436 45.50862 142.03711 45.511719 z M 13.558594 62.425781 L 13.558594 114.35938 L 13.558594 123.52344 L 28.382812 132.09375 L 28.382812 107.6543 L 48.148438 143.51953 L 62.972656 152.08984 L 62.972656 90.990234 L 48.148438 82.421875 L 48.148438 106.86133 L 28.382812 70.994141 L 13.558594 62.425781 z M 121.63281 73.513672 C 118.3924 73.43691 114.75964 74.436568 110.92188 76.638672 L 86.214844 90.816406 L 86.214844 152.08984 L 110.92188 137.91211 C 124.56732 130.08244 135.62891 110.01976 135.62891 93.099609 C 135.62891 80.9383 129.91395 73.709829 121.63281 73.513672 z M 115.73047 90.402344 C 120.16442 90.183585 123.27539 93.842127 123.27539 100.1875 C 123.27539 108.64756 117.74471 118.67892 110.92188 122.59375 L 98.568359 129.68164 L 98.568359 99.044922 L 110.92188 91.957031 C 112.62757 90.978323 114.25248 90.475289 115.73047 90.402344 z "
         transform="matrix(0.26458333,0,0,0.26458333,107.2437,111.06816)" />
    </g>
  </g>
</svg>
